<?xml version="1.0" encoding="iso-8859-1"?>
<!-- Generator: Adobe Illustrator 19.0.0, SVG Export Plug-In . SVG Version: 6.00 Build 0)  -->
<svg version="1.1" id="Capa_1" xmlns="http://www.w3.org/2000/svg" xmlns:xlink="http://www.w3.org/1999/xlink" x="0px" y="0px"
	 viewBox="0 0 512 512" style="enable-background:new 0 0 512 512;" xml:space="preserve">
<g>
	<g>
		<path d="M263.07,56.93C261.21,55.07,258.63,54,256,54c-2.63,0-5.21,1.07-7.07,2.93S246,61.37,246,64c0,2.63,1.07,5.21,2.93,7.07
			S253.37,74,256,74c2.63,0,5.21-1.07,7.07-2.93c1.86-1.86,2.93-4.44,2.93-7.07C266,61.37,264.93,58.79,263.07,56.93z"/>
	</g>
</g>
<g>
	<g>
		<path d="M455.643,134.449l54-64c2.509-2.974,3.065-7.134,1.426-10.663C509.429,56.257,505.891,54,502,54H295
			c-5.523,0-10,4.477-10,10s4.477,10,10,10h185.479l-37.125,44H68.647L31.522,74H210c5.523,0,10-4.477,10-10s-4.477-10-10-10H10
			c-3.891,0-7.429,2.257-9.069,5.786c-1.64,3.529-1.083,7.688,1.426,10.663l54,64C58.257,136.701,61.054,138,64,138v121
			c0,5.523,4.477,10,10,10s10-4.477,10-10V138h162v83.064l-56.863,41.313c-3.505,2.546-4.971,7.06-3.633,11.181l23.294,71.692
			c1.339,4.12,5.178,6.91,9.511,6.91h75.382c4.333,0,8.172-2.79,9.511-6.91l23.294-71.692c1.338-4.121-0.128-8.634-3.633-11.181
			L266,221.064V138h162v188.905l-56.863,41.313c-3.505,2.546-4.971,7.06-3.633,11.181l23.294,71.692
			c1.339,4.12,5.178,6.91,9.511,6.91h75.382c4.333,0,8.172-2.79,9.511-6.91l23.294-71.692c1.338-4.121-0.128-8.634-3.633-11.181
			L448,326.905V138C450.946,138,453.743,136.701,455.643,134.449z M305.229,274.288l-18.804,57.872h-60.851l-18.804-57.872
			L256,238.521L305.229,274.288z M487.229,380.128L468.425,438h-60.851l-18.804-57.872L438,344.361L487.229,380.128z"/>
	</g>
</g>
<g>
	<g>
		<path d="M140.863,368.218L79.878,323.91c-3.505-2.546-8.251-2.546-11.756,0L7.137,368.218c-3.505,2.546-4.971,7.06-3.633,11.181
			l23.294,71.692c1.339,4.12,5.178,6.91,9.511,6.91h75.382c4.333,0,8.172-2.79,9.511-6.91l23.294-71.692
			C145.834,375.278,144.368,370.764,140.863,368.218z M104.425,438h-60.85l-18.804-57.872L74,344.361l49.229,35.767L104.425,438z"/>
	</g>
</g>
<g>
	<g>
		<path d="M81.07,285.64c-1.86-1.86-4.44-2.93-7.07-2.93s-5.21,1.07-7.07,2.93S64,290.08,64,292.71s1.07,5.21,2.93,7.07
			s4.44,2.93,7.07,2.93s5.21-1.07,7.07-2.93c1.86-1.86,2.93-4.44,2.93-7.07S82.93,287.5,81.07,285.64z"/>
	</g>
</g>
<g>
</g>
<g>
</g>
<g>
</g>
<g>
</g>
<g>
</g>
<g>
</g>
<g>
</g>
<g>
</g>
<g>
</g>
<g>
</g>
<g>
</g>
<g>
</g>
<g>
</g>
<g>
</g>
<g>
</g>
</svg>
