<?xml version="1.0" encoding="iso-8859-1"?>
<!-- Generator: Adobe Illustrator 19.0.0, SVG Export Plug-In . SVG Version: 6.00 Build 0)  -->
<svg version="1.1" id="Capa_1" xmlns="http://www.w3.org/2000/svg" xmlns:xlink="http://www.w3.org/1999/xlink" x="0px" y="0px"
	 viewBox="0 0 512 512" style="enable-background:new 0 0 512 512;" xml:space="preserve">
<g>
	<g>
		<path d="M151,342.18V169.821c37.639-15.408,61-39.31,61-79.821c0-45.243-28.969-68.689-70.976-83.622
			c-4.592-1.634-9.691-0.932-13.674,1.878c-3.982,2.811-6.35,7.381-6.35,12.255v47.453c-9.076,5.93-20.924,5.931-30,0V20.512
			c0-4.874-2.368-9.444-6.35-12.255c-3.983-2.812-9.082-3.511-13.674-1.878C29.001,21.299,0,44.676,0,90
			c0,40.514,23.365,64.415,61,79.821V342.18C23.362,357.586,0,381.489,0,422c0,45.243,28.969,68.689,70.976,83.622
			C80.734,509.094,91,501.836,91,491.489v-47.454c9.077-5.931,20.924-5.932,30,0v47.453c0,10.398,10.316,17.585,20.024,14.133
			C182.999,490.7,212,467.324,212,422C212,381.495,188.645,357.589,151,342.18z M151,468.837V437c0-3.978-1.581-7.793-4.394-10.606
			c-11.196-11.197-25.899-16.793-40.606-16.793c-14.704,0-29.413,5.599-40.606,16.792C62.581,429.207,61,433.021,61,437v31.837
			C38.989,457.381,30,443.227,30,422c0-26.782,14.306-42.302,51.024-55.355c5.98-2.126,9.976-7.786,9.976-14.133V159.489
			c0-6.347-3.995-12.008-9.976-14.134C44.306,132.302,30,116.782,30,90c0-21.228,8.989-35.381,31-46.837V75
			c0,3.979,1.581,7.793,4.394,10.607c22.391,22.39,58.823,22.39,81.213,0C149.419,82.793,151,78.978,151,75V43.163
			C173.011,54.62,182,68.773,182,90c0,26.782-14.306,42.302-51.024,55.355c-5.98,2.126-9.976,7.786-9.976,14.133v193.023
			c0,6.347,3.995,12.007,9.976,14.133C167.694,379.698,182,395.218,182,422C182,443.227,173.011,457.381,151,468.837z"/>
	</g>
</g>
<g>
	<g>
		<path d="M437,180c-41.463,0-75,34.535-75,76c0,41.463,33.535,76,75,76c41.463,0,75-34.535,75-76C512,214.537,478.465,180,437,180z
			 M437,302c-24.393,0-45-21.065-45-46s20.607-46,45-46s45,21.065,45,46S461.393,302,437,302z"/>
	</g>
</g>
<g>
	<g>
		<path d="M257,180c-41.463,0-75,34.535-75,76c0,41.463,33.535,76,75,76c41.463,0,75-34.535,75-76C332,214.537,298.465,180,257,180z
			 M257,302c-24.393,0-45-21.065-45-46s20.607-46,45-46s45,21.065,45,46S281.393,302,257,302z"/>
	</g>
</g>
<g>
	<g>
		<circle cx="257" cy="256" r="15"/>
	</g>
</g>
<g>
	<g>
		<circle cx="437" cy="256" r="15"/>
	</g>
</g>
<g>
	<g>
		<path d="M437,30c-11.728,0-94.038,0-105,0V15c0-8.284-6.716-15-15-15h-60c-8.284,0-15,6.716-15,15v120c0,8.284,6.716,15,15,15h60
			c8.284,0,15-6.716,15-15v-15h105c24.813,0,45-20.187,45-45S461.813,30,437,30z M302,120h-30V30h30C302,39.109,302,105.331,302,120
			z M332,90V60h23.787l30,30H332z M437,90h-8.787l-30-30H437c8.271,0,15,6.729,15,15S445.271,90,437,90z"/>
	</g>
</g>
<g>
	<g>
		<path d="M467,362h-60c-8.284,0-15,6.716-15,15v15c-10.959,0-93.272,0-105,0c-24.813,0-45,20.187-45,45s20.187,45,45,45h105v15
			c0,8.284,6.716,15,15,15h60c8.284,0,15-6.716,15-15V377C482,368.716,475.284,362,467,362z M295.787,452H287
			c-8.271,0-15-6.729-15-15s6.729-15,15-15h38.787L295.787,452z M392,452h-53.787l30-30H392V452z M452,482h-30c0-14.8,0-80.875,0-90
			h30V482z"/>
	</g>
</g>
<g>
</g>
<g>
</g>
<g>
</g>
<g>
</g>
<g>
</g>
<g>
</g>
<g>
</g>
<g>
</g>
<g>
</g>
<g>
</g>
<g>
</g>
<g>
</g>
<g>
</g>
<g>
</g>
<g>
</g>
</svg>
