<?xml version="1.0" encoding="iso-8859-1"?>
<!-- Generator: Adobe Illustrator 19.0.0, SVG Export Plug-In . SVG Version: 6.00 Build 0)  -->
<svg version="1.1" id="Capa_1" xmlns="http://www.w3.org/2000/svg" xmlns:xlink="http://www.w3.org/1999/xlink" x="0px" y="0px"
	 viewBox="0 0 512 512" style="enable-background:new 0 0 512 512;" xml:space="preserve">
<g>
	<g>
		<path d="M497,150c8.284,0,15-6.716,15-15V15c0-8.284-6.716-15-15-15C483.404,0,28.596,0,15,0C6.716,0,0,6.716,0,15v120
			c0,8.284,6.716,15,15,15h15v121H15c-8.284,0-15,6.716-15,15c0,21.019,0,190.29,0,211c0,8.284,6.716,15,15,15
			c23.285,0,454.673,0,482,0c8.284,0,15-6.716,15-15c0-20.71,0-189.964,0-211c0-8.284-6.716-15-15-15h-15V150H497z M271,30h90v90
			h-90V30z M316,241c-8.284,0-15,6.716-15,15v15h-30v-45c0-24.813-20.187-45-45-45c-8.284,0-15,6.716-15,15s6.716,15,15,15
			c8.271,0,15,6.729,15,15v45h-30v-15c0-8.284-6.716-15-15-15s-15,6.716-15,15v15H60V150c1.827,0,382.637,0,392,0v121H331v-15
			C331,247.716,324.284,241,316,241z M150,30h91v90h-91V30z M30,30h90v30h-15c-8.284,0-15,6.716-15,15s6.716,15,15,15h15v30
			c-10.562,0-76.13,0-90,0V30z M120,391h-15c-8.284,0-15,6.716-15,15s6.716,15,15,15h15v61H30V361h90V391z M241,482h-91V361h91V482z
			 M361,482h-90V361h90V482z M482,482h-91v-61h15c8.284,0,15-6.716,15-15s-6.716-15-15-15h-15v-30h91V482z M482,331H30v-30
			c49.63,0,400.683,0,452,0V331z M391,120V90h15c8.284,0,15-6.716,15-15s-6.716-15-15-15h-15V30h91v90
			C470.477,120,402.4,120,391,120z"/>
	</g>
</g>
<g>
</g>
<g>
</g>
<g>
</g>
<g>
</g>
<g>
</g>
<g>
</g>
<g>
</g>
<g>
</g>
<g>
</g>
<g>
</g>
<g>
</g>
<g>
</g>
<g>
</g>
<g>
</g>
<g>
</g>
</svg>
