<?xml version="1.0" encoding="iso-8859-1"?>
<!-- Generator: Adobe Illustrator 19.0.0, SVG Export Plug-In . SVG Version: 6.00 Build 0)  -->
<svg version="1.1" id="Capa_1" xmlns="http://www.w3.org/2000/svg" xmlns:xlink="http://www.w3.org/1999/xlink" x="0px" y="0px"
	 viewBox="0 0 512 512" style="enable-background:new 0 0 512 512;" xml:space="preserve">
<g>
	<g>
		<path d="M110.933,213.329c-18.825,0-34.133,15.309-34.133,34.133s15.309,34.133,34.133,34.133s34.133-15.309,34.133-34.133
			S129.758,213.329,110.933,213.329z M110.933,264.529c-9.412,0-17.067-7.654-17.067-17.067c0-9.412,7.654-17.067,17.067-17.067
			c9.412,0,17.067,7.654,17.067,17.067C128,256.875,120.346,264.529,110.933,264.529z"/>
	</g>
</g>
<g>
	<g>
		<path d="M401.067,213.329c-18.825,0-34.133,15.309-34.133,34.133s15.309,34.133,34.133,34.133
			c18.825,0,34.133-15.309,34.133-34.133S419.891,213.329,401.067,213.329z M401.067,264.529c-9.412,0-17.067-7.654-17.067-17.067
			c0-9.412,7.654-17.067,17.067-17.067c9.412,0,17.067,7.654,17.067,17.067C418.133,256.875,410.479,264.529,401.067,264.529z"/>
	</g>
</g>
<g>
	<g>
		<path d="M256,213.329c-18.825,0-34.133,15.309-34.133,34.133s15.309,34.133,34.133,34.133c18.825,0,34.133-15.309,34.133-34.133
			S274.825,213.329,256,213.329z M256,264.529c-9.412,0-17.067-7.654-17.067-17.067c0-9.412,7.654-17.067,17.067-17.067
			c9.412,0,17.067,7.654,17.067,17.067C273.067,256.875,265.412,264.529,256,264.529z"/>
	</g>
</g>
<g>
	<g>
		<path d="M196.275,307.196H25.591C11.477,307.196,0,318.682,0,332.787v102.417c0,14.106,11.477,25.591,25.591,25.591h170.684
			c14.114,0,25.591-11.486,25.591-25.591V332.787C221.867,318.682,210.389,307.196,196.275,307.196z M204.8,435.204
			c0,4.702-3.823,8.525-8.525,8.525H25.591c-4.702,0-8.525-3.823-8.525-8.525V332.787c0-4.702,3.823-8.525,8.525-8.525h170.684
			c4.702,0,8.525,3.823,8.525,8.525V435.204z"/>
	</g>
</g>
<g>
	<g>
		<path d="M213.333,409.596H8.533c-4.71,0-8.533,3.814-8.533,8.533v17.075c0,14.106,11.477,25.591,25.591,25.591h170.684
			c14.114,0,25.591-11.486,25.591-25.591v-17.075C221.867,413.41,218.044,409.596,213.333,409.596z M204.8,435.204
			c0,4.702-3.823,8.525-8.525,8.525H25.591c-4.702,0-8.525-3.823-8.525-8.525v-8.542H204.8V435.204z"/>
	</g>
</g>
<g>
	<g>
		<path d="M136.533,443.729h-51.2c-4.71,0-8.533,3.814-8.533,8.533v51.2c0,4.719,3.823,8.533,8.533,8.533h51.2
			c4.71,0,8.533-3.814,8.533-8.533v-51.2C145.067,447.543,141.244,443.729,136.533,443.729z M128,494.929H93.867v-34.133H128
			V494.929z"/>
	</g>
</g>
<g>
	<g>
		<path d="M162.133,494.929h-102.4c-4.71,0-8.533,3.814-8.533,8.533c0,4.719,3.823,8.533,8.533,8.533h102.4
			c4.71,0,8.533-3.814,8.533-8.533C170.667,498.743,166.844,494.929,162.133,494.929z"/>
	</g>
</g>
<g>
	<g>
		<path d="M486.409,307.196H315.725c-14.114,0-25.591,11.486-25.591,25.591v102.417c0,14.106,11.477,25.591,25.591,25.591h170.684
			c14.114,0,25.591-11.486,25.591-25.591V332.787C512,318.682,500.523,307.196,486.409,307.196z M494.933,435.204
			c0,4.702-3.823,8.525-8.525,8.525H315.725c-4.702,0-8.525-3.823-8.525-8.525V332.787c0-4.702,3.823-8.525,8.525-8.525h170.684
			c4.702,0,8.525,3.823,8.525,8.525V435.204z"/>
	</g>
</g>
<g>
	<g>
		<path d="M503.467,409.596h-204.8c-4.71,0-8.533,3.814-8.533,8.533v17.075c0,14.106,11.477,25.591,25.591,25.591h170.684
			c14.114,0,25.591-11.486,25.591-25.591v-17.075C512,413.41,508.177,409.596,503.467,409.596z M494.933,435.204
			c0,4.702-3.823,8.525-8.525,8.525H315.725c-4.702,0-8.525-3.823-8.525-8.525v-8.542h187.733V435.204z"/>
	</g>
</g>
<g>
	<g>
		<path d="M426.667,443.729h-51.2c-4.71,0-8.533,3.814-8.533,8.533v51.2c0,4.719,3.823,8.533,8.533,8.533h51.2
			c4.71,0,8.533-3.814,8.533-8.533v-51.2C435.2,447.543,431.377,443.729,426.667,443.729z M418.133,494.929H384v-34.133h34.133
			V494.929z"/>
	</g>
</g>
<g>
	<g>
		<path d="M452.267,494.929h-102.4c-4.71,0-8.533,3.814-8.533,8.533c0,4.719,3.823,8.533,8.533,8.533h102.4
			c4.71,0,8.533-3.814,8.533-8.533C460.8,498.743,456.977,494.929,452.267,494.929z"/>
	</g>
</g>
<g>
	<g>
		<path d="M341.342,0.004H170.658c-14.114,0-25.591,11.486-25.591,25.591v93.875c0,14.106,11.477,25.591,25.591,25.591h170.684
			c14.114,0,25.591-11.486,25.591-25.591V25.596C366.933,11.49,355.456,0.004,341.342,0.004z M349.867,119.471
			c0,4.702-3.823,8.525-8.525,8.525H170.658c-4.702,0-8.525-3.823-8.525-8.525V25.596c0-4.702,3.823-8.525,8.525-8.525h170.684
			c4.702,0,8.525,3.823,8.525,8.525V119.471z"/>
	</g>
</g>
<g>
	<g>
		<path d="M358.4,93.862H153.6c-4.71,0-8.533,3.814-8.533,8.533v17.075c0,14.106,11.477,25.591,25.591,25.591h170.684
			c14.114,0,25.591-11.486,25.591-25.591v-17.075C366.933,97.677,363.11,93.862,358.4,93.862z M349.867,119.471
			c0,4.702-3.823,8.525-8.525,8.525H170.658c-4.702,0-8.525-3.823-8.525-8.525v-8.542h187.733V119.471z"/>
	</g>
</g>
<g>
	<g>
		<path d="M281.6,127.996h-51.2c-4.71,0-8.533,3.814-8.533,8.533v51.2c0,4.719,3.823,8.533,8.533,8.533h51.2
			c4.71,0,8.533-3.814,8.533-8.533v-51.2C290.133,131.81,286.31,127.996,281.6,127.996z M273.067,179.196h-34.133v-34.133h34.133
			V179.196z"/>
	</g>
</g>
<g>
	<g>
		<path d="M307.2,179.196H204.8c-4.71,0-8.533,3.814-8.533,8.533s3.823,8.533,8.533,8.533h102.4c4.71,0,8.533-3.814,8.533-8.533
			S311.91,179.196,307.2,179.196z"/>
	</g>
</g>
<g>
	<g>
		<path d="M230.4,238.929h-93.867c-4.71,0-8.533,3.814-8.533,8.533s3.823,8.533,8.533,8.533H230.4c4.71,0,8.533-3.814,8.533-8.533
			S235.11,238.929,230.4,238.929z"/>
	</g>
</g>
<g>
	<g>
		<path d="M375.467,238.929H281.6c-4.71,0-8.533,3.814-8.533,8.533s3.823,8.533,8.533,8.533h93.867c4.71,0,8.533-3.814,8.533-8.533
			S380.177,238.929,375.467,238.929z"/>
	</g>
</g>
<g>
	<g>
		<path d="M503.467,238.929h-76.8c-4.71,0-8.533,3.814-8.533,8.533s3.823,8.533,8.533,8.533h76.8c4.71,0,8.533-3.814,8.533-8.533
			S508.177,238.929,503.467,238.929z"/>
	</g>
</g>
<g>
	<g>
		<path d="M503.467,221.862c-4.71,0-8.533,3.814-8.533,8.533v34.133c0,4.719,3.823,8.533,8.533,8.533s8.533-3.814,8.533-8.533
			v-34.133C512,225.677,508.177,221.862,503.467,221.862z"/>
	</g>
</g>
<g>
	<g>
		<path d="M85.333,238.929h-76.8c-4.71,0-8.533,3.814-8.533,8.533s3.823,8.533,8.533,8.533h76.8c4.71,0,8.533-3.814,8.533-8.533
			S90.044,238.929,85.333,238.929z"/>
	</g>
</g>
<g>
	<g>
		<path d="M8.533,221.862c-4.71,0-8.533,3.814-8.533,8.533v34.133c0,4.719,3.823,8.533,8.533,8.533s8.533-3.814,8.533-8.533v-34.133
			C17.067,225.677,13.244,221.862,8.533,221.862z"/>
	</g>
</g>
<g>
	<g>
		<path d="M110.933,264.529c-4.71,0-8.533,3.814-8.533,8.533v42.667c0,4.719,3.823,8.533,8.533,8.533s8.533-3.814,8.533-8.533
			v-42.667C119.467,268.344,115.644,264.529,110.933,264.529z"/>
	</g>
</g>
<g>
	<g>
		<path d="M401.067,264.529c-4.71,0-8.533,3.814-8.533,8.533v42.667c0,4.719,3.823,8.533,8.533,8.533s8.533-3.814,8.533-8.533
			v-42.667C409.6,268.344,405.777,264.529,401.067,264.529z"/>
	</g>
</g>
<g>
	<g>
		<path d="M256,187.729c-4.71,0-8.533,3.814-8.533,8.533v25.6c0,4.719,3.823,8.533,8.533,8.533s8.533-3.814,8.533-8.533v-25.6
			C264.533,191.543,260.71,187.729,256,187.729z"/>
	</g>
</g>
<g>
</g>
<g>
</g>
<g>
</g>
<g>
</g>
<g>
</g>
<g>
</g>
<g>
</g>
<g>
</g>
<g>
</g>
<g>
</g>
<g>
</g>
<g>
</g>
<g>
</g>
<g>
</g>
<g>
</g>
</svg>
