<?xml version="1.0" encoding="iso-8859-1"?>
<!-- Generator: Adobe Illustrator 17.1.0, SVG Export Plug-In . SVG Version: 6.00 Build 0)  -->
<!DOCTYPE svg PUBLIC "-//W3C//DTD SVG 1.1//EN" "http://www.w3.org/Graphics/SVG/1.1/DTD/svg11.dtd">
<svg version="1.1" id="Capa_1" xmlns="http://www.w3.org/2000/svg" xmlns:xlink="http://www.w3.org/1999/xlink" x="0px" y="0px"
	 viewBox="0 0 404.666 404.666" style="enable-background:new 0 0 404.666 404.666;" xml:space="preserve">
<path id="XMLID_216_" d="M136.001,5.128c2.139-4.486,7.511-6.389,11.997-4.251l3.007,1.434c4.487,2.14,6.39,7.511,4.251,11.997
	c-1.543,3.237-4.769,5.129-8.13,5.129c-1.299,0-2.617-0.282-3.867-0.878l-3.007-1.434C135.764,14.986,133.862,9.615,136.001,5.128z
	 M246.042,87.867l-72.152,34.407c-4.486,2.14-6.389,7.512-4.25,11.998c1.544,3.236,4.769,5.128,8.13,5.128
	c1.299,0,2.618-0.282,3.868-0.878l72.152-34.407c4.486-2.14,6.389-7.512,4.25-11.998C255.898,87.629,250.525,85.729,246.042,87.867z
	 M204.795,47.905l41.247,19.669c1.251,0.596,2.569,0.878,3.868,0.878c3.361,0,6.586-1.892,8.13-5.128
	c2.139-4.486,0.236-9.858-4.25-11.998l-41.247-19.669c-4.49-2.139-9.858-0.236-11.998,4.25
	C198.406,40.393,200.308,45.765,204.795,47.905z M124.837,86.748c0.004,0,0.008,0,0.012,0l79.936-0.101
	c4.97-0.006,8.994-4.041,8.988-9.012c-0.006-4.967-4.034-8.988-9-8.988c-0.003,0-0.008,0-0.012,0l-79.936,0.101
	c-4.97,0.006-8.994,4.041-8.988,9.012C115.843,82.726,119.871,86.748,124.837,86.748z M173.89,33.166l2.652,1.265
	c1.25,0.596,2.568,0.878,3.867,0.878c3.361,0,6.587-1.892,8.13-5.129c2.139-4.486,0.236-9.857-4.251-11.997l-2.652-1.265
	c-4.486-2.138-9.857-0.237-11.997,4.251C167.501,25.656,169.403,31.027,173.89,33.166z M87.566,86.793c0.003,0,0.007,0,0.011,0
	l3.333-0.004c4.971-0.006,8.995-4.04,8.989-9.011c-0.006-4.967-4.033-8.989-9-8.989c-0.003,0-0.007,0-0.011,0l-3.333,0.004
	c-4.971,0.006-8.995,4.04-8.989,9.011C78.572,82.771,82.6,86.793,87.566,86.793z M143.258,136.882l-3.008,1.435
	c-4.486,2.14-6.389,7.511-4.249,11.997c1.543,3.236,4.768,5.128,8.129,5.128c1.299,0,2.618-0.282,3.868-0.879l3.008-1.435
	c4.487-2.14,6.389-7.511,4.249-11.997C153.115,136.644,147.742,134.741,143.258,136.882z M342.55,253.091c-4.971,0-9,4.029-9,9
	v5.203c0,4.971,4.029,9,9,9s9-4.029,9-9v-5.203C351.55,257.121,347.52,253.091,342.55,253.091z M393.061,160.303v235.362
	c0,4.971-4.029,9-9,9h-141.22c-4.971,0-9-4.029-9-9V160.303c0-4.328,3.055-7.942,7.126-8.805
	c5.591-16.503,18.561-30.016,35.494-38.091l4.246-40.361c0.481-4.581,4.344-8.059,8.95-8.059h47.586c4.606,0,8.469,3.478,8.95,8.059
	l4.247,40.363c16.934,8.074,29.902,21.586,35.494,38.089C390.006,152.361,393.061,155.975,393.061,160.303z M295.224,107.102
	c5.85-1.228,11.957-1.875,18.226-1.875c6.271,0,12.377,0.647,18.229,1.875l-2.537-24.114H297.76L295.224,107.102z M260.648,151.303
	h81.901h23.704c-8.934-16.574-29.666-28.076-52.804-28.076S269.581,134.73,260.648,151.303z M375.061,169.303H351.55v61.39
	c0,4.971-4.029,9-9,9s-9-4.029-9-9v-31.639c-1.645,2.152-4.238,3.541-7.156,3.541c-4.971,0-9-4.029-9-9v-24.292h-65.552v217.362
	h123.22V169.303z M166.663,251.568v45.63h21.466c4.971,0,9,4.029,9,9s-4.029,9-9,9h-30.279c-0.125,0.002-0.248,0.002-0.373,0
	h-25.841v45.631h56.493c4.971,0,9,4.029,9,9s-4.029,9-9,9H20.604c-4.971,0-9-4.029-9-9s4.029-9,9-9h93.031v-45.631h-62.38
	c-0.125,0.002-0.248,0.002-0.373,0H20.604c-4.971,0-9-4.029-9-9s4.029-9,9-9h21.465v-45.63H20.604c-4.971,0-9-4.029-9-9s4.029-9,9-9
	H74.34v-45.63H20.604c-4.971,0-9-4.029-9-9s4.029-9,9-9h82.23c4.971,0,9,4.029,9,9s-4.029,9-9,9H92.34v45.63h95.789
	c4.971,0,9,4.029,9,9s-4.029,9-9,9H166.663z M148.663,251.568H60.069v45.63h88.594V251.568z"/>
<g>
</g>
<g>
</g>
<g>
</g>
<g>
</g>
<g>
</g>
<g>
</g>
<g>
</g>
<g>
</g>
<g>
</g>
<g>
</g>
<g>
</g>
<g>
</g>
<g>
</g>
<g>
</g>
<g>
</g>
</svg>
